<svg version="1.1" xmlns="http://www.w3.org/2000/svg" xmlns:xlink="http://www.w3.org/1999/xlink" width="190.97728" height="157.99432" viewBox="0,0,190.97728,157.99432"><g transform="translate(-144.51136,-101.00284)"><g data-paper-data="{&quot;isPaintingLayer&quot;:true}" fill="#004775" fill-rule="nonzero" stroke="#000000" stroke-width="18" stroke-linecap="butt" stroke-linejoin="miter" stroke-miterlimit="10" stroke-dasharray="" stroke-dashoffset="0" style="mix-blend-mode: normal"><g><path d="M297.90341,176.70171c0,34.00317 -32.32326,61.56818 -72.19602,61.56818c-39.87276,0 -72.19602,-27.56501 -72.19602,-61.56818c0,-34.00317 32.32326,-61.56818 72.19602,-61.56818c39.87276,0 72.19602,27.56502 72.19602,61.56818z"/><path d="M326.48864,134.9233c0,13.76318 -10.82912,24.92046 -24.1875,24.92046c-13.35838,0 -24.1875,-11.15727 -24.1875,-24.92046c0,-13.76318 10.82912,-24.92046 24.1875,-24.92046c13.35838,0 24.1875,11.15727 24.1875,24.92046z"/><path d="M316.96023,225.80966c0,13.35838 -10.50095,24.1875 -23.45455,24.1875c-12.95359,0 -23.45454,-10.82912 -23.45454,-24.1875c0,-13.35838 10.50095,-24.1875 23.45454,-24.1875c12.95359,0 23.45455,10.82912 23.45455,24.1875z"/></g></g></g></svg>